<?xml version="1.0" encoding="UTF-8"?>
<svg width="515px" height="515px" viewBox="0 0 515 515" version="1.1" xmlns="http://www.w3.org/2000/svg" xmlns:xlink="http://www.w3.org/1999/xlink">
<!-- Generator: Patternodes 2.3.2 - https://www.lostminds.com/patternodes2 -->
<rect x="0" y="0" width="515" height="515" fill="rgb(255,255,255)" opacity="1" id="Artboard background"/>
<g id="Artboard layers">
<g id="Middle layer">
<g id="Group">
<g id="Group">
<g id="Group 0-0">
<path id="Triangle" d="M84.6955,88.9009 L65.3812,60.991 L88.9933,65.2888 Z" fill="rgb(1,243,2)" fill-opacity="1" />
<path id="Triangle" d="M65.3812,60.991 L84.6955,88.9009 L61.0835,84.6031 Z" fill="rgb(124,85,162)" fill-opacity="1" />
</g>
<g id="Group 1-0">
<path id="Triangle" d="M134.282,68.0215 L103.295,81.8704 L111.864,59.4523 Z" fill="rgb(255,75,19)" fill-opacity="1" />
<path id="Triangle" d="M103.295,81.8704 L134.282,68.0215 L125.713,90.4396 Z" fill="rgb(5,173,190)" fill-opacity="1" />
</g>
<g id="Group 2-0">
<path id="Triangle" d="M173.177,88.168 L151.9,61.7239 L175.76,64.3075 Z" fill="rgb(234,244,0)" fill-opacity="1" />
<path id="Triangle" d="M151.9,61.7239 L173.177,88.168 L149.316,85.5844 Z" fill="rgb(167,35,157)" fill-opacity="1" />
</g>
<g id="Group 3-0">
<path id="Triangle" d="M208.891,91.7158 L203.686,58.1761 L223.058,72.3433 Z" fill="rgb(236,53,242)" fill-opacity="1" />
<path id="Triangle" d="M203.686,58.1761 L208.891,91.7158 L189.519,77.5486 Z" fill="rgb(167,35,157)" fill-opacity="1" />
</g>
<g id="Group 4-0">
<path id="Triangle" d="M261.249,62.2051 L238.828,87.6868 L237.297,63.7357 Z" fill="rgb(1,243,2)" fill-opacity="1" />
<path id="Triangle" d="M238.828,87.6868 L261.249,62.2051 L262.779,86.1562 Z" fill="rgb(167,35,157)" fill-opacity="1" />
</g>
<g id="Group 5-0">
<path id="Triangle" d="M298.445,91.2652 L289.132,58.6267 L310.108,70.2894 Z" fill="rgb(229,108,21)" fill-opacity="1" />
<path id="Triangle" d="M289.132,58.6267 L298.445,91.2652 L277.469,79.6025 Z" fill="rgb(5,173,190)" fill-opacity="1" />
</g>
<g id="Group 6-0">
<path id="Triangle" d="M343.802,90.7183 L331.275,59.1736 L353.311,68.6823 Z" fill="rgb(229,108,21)" fill-opacity="1" />
<path id="Triangle" d="M331.275,59.1736 L343.802,90.7183 L321.766,81.2096 Z" fill="rgb(162,238,235)" fill-opacity="1" />
</g>
<g id="Group 7-0">
<path id="Triangle" d="M395.926,83.5337 L366.651,66.3582 L389.876,60.3087 Z" fill="rgb(255,75,19)" fill-opacity="1" />
<path id="Triangle" d="M366.651,66.3582 L395.926,83.5337 L372.701,89.5832 Z" fill="rgb(162,238,235)" fill-opacity="1" />
</g>
<g id="Group 8-0">
<path id="Triangle" d="M434.437,89.0762 L415.64,60.8157 L439.169,65.5472 Z" fill="rgb(229,108,21)" fill-opacity="1" />
<path id="Triangle" d="M415.64,60.8157 L434.437,89.0762 L410.908,84.3447 Z" fill="rgb(42,147,0)" fill-opacity="1" />
</g>
<g id="Group 0-1">
<path id="Triangle" d="M77.6898,101.934 L72.3869,135.458 L58.2762,116.045 Z" fill="rgb(1,243,2)" fill-opacity="1" />
<path id="Triangle" d="M72.3869,135.458 L77.6898,101.934 L91.8005,121.347 Z" fill="rgb(167,35,157)" fill-opacity="1" />
</g>
<g id="Group 1-1">
<path id="Triangle" d="M128.48,132.627 L109.097,104.765 L132.72,109.005 Z" fill="rgb(255,75,19)" fill-opacity="1" />
<path id="Triangle" d="M109.097,104.765 L128.48,132.627 L104.857,128.387 Z" fill="rgb(42,147,0)" fill-opacity="1" />
</g>
<g id="Group 2-1">
<path id="Triangle" d="M178.748,113.671 L146.329,123.721 L157.513,102.486 Z" fill="rgb(234,244,0)" fill-opacity="1" />
<path id="Triangle" d="M146.329,123.721 L178.748,113.671 L167.564,134.905 Z" fill="rgb(5,173,190)" fill-opacity="1" />
</g>
<g id="Group 3-1">
<path id="Triangle" d="M222.075,124.923 L190.502,112.468 L212.516,102.909 Z" fill="rgb(234,244,0)" fill-opacity="1" />
<path id="Triangle" d="M190.502,112.468 L222.075,124.923 L200.061,134.483 Z" fill="rgb(5,173,190)" fill-opacity="1" />
</g>
<g id="Group 4-1">
<path id="Triangle" d="M262.985,129.668 L237.092,107.724 L261.011,105.75 Z" fill="rgb(234,244,0)" fill-opacity="1" />
<path id="Triangle" d="M237.092,107.724 L262.985,129.668 L239.066,131.642 Z" fill="rgb(5,173,190)" fill-opacity="1" />
</g>
<g id="Group 5-1">
<path id="Triangle" d="M303.101,132.883 L284.476,104.509 L307.975,109.383 Z" fill="rgb(229,108,21)" fill-opacity="1" />
<path id="Triangle" d="M284.476,104.509 L303.101,132.883 L279.601,128.009 Z" fill="rgb(124,85,162)" fill-opacity="1" />
</g>
<g id="Group 6-1">
<path id="Triangle" d="M352.9,111.482 L322.177,125.909 L330.325,103.335 Z" fill="rgb(255,75,19)" fill-opacity="1" />
<path id="Triangle" d="M322.177,125.909 L352.9,111.482 L344.752,134.057 Z" fill="rgb(124,85,162)" fill-opacity="1" />
</g>
<g id="Group 7-1">
<path id="Triangle" d="M395.88,127.361 L366.697,110.031 L389.954,104.104 Z" fill="rgb(1,243,2)" fill-opacity="1" />
<path id="Triangle" d="M366.697,110.031 L395.88,127.361 L372.623,133.287 Z" fill="rgb(124,85,162)" fill-opacity="1" />
</g>
<g id="Group 8-1">
<path id="Triangle" d="M427.751,135.448 L422.325,101.944 L441.791,115.983 Z" fill="rgb(236,53,242)" fill-opacity="1" />
<path id="Triangle" d="M422.325,101.944 L427.751,135.448 L408.286,121.409 Z" fill="rgb(5,173,190)" fill-opacity="1" />
</g>
<g id="Group 0-2">
<path id="Triangle" d="M90.2034,170.063 L59.8734,154.829 L82.6556,147.281 Z" fill="rgb(1,243,2)" fill-opacity="1" />
<path id="Triangle" d="M59.8734,154.829 L90.2034,170.063 L67.4211,177.611 Z" fill="rgb(42,147,0)" fill-opacity="1" />
</g>
<g id="Group 1-2">
<path id="Triangle" d="M119.603,179.397 L117.974,145.495 L135.739,161.631 Z" fill="rgb(234,244,0)" fill-opacity="1" />
<path id="Triangle" d="M117.974,145.495 L119.603,179.397 L101.837,163.26 Z" fill="rgb(5,173,190)" fill-opacity="1" />
</g>
<g id="Group 2-2">
<path id="Triangle" d="M178.917,158.002 L146.16,166.89 L158.094,146.068 Z" fill="rgb(1,243,2)" fill-opacity="1" />
<path id="Triangle" d="M146.16,166.89 L178.917,158.002 L166.982,178.824 Z" fill="rgb(167,35,157)" fill-opacity="1" />
</g>
<g id="Group 3-2">
<path id="Triangle" d="M220.648,153.402 L191.929,171.49 L197.244,148.086 Z" fill="rgb(234,244,0)" fill-opacity="1" />
<path id="Triangle" d="M191.929,171.49 L220.648,153.402 L215.332,176.806 Z" fill="rgb(124,85,162)" fill-opacity="1" />
</g>
<g id="Group 4-2">
<path id="Triangle" d="M261.987,174.498 L238.09,150.394 L262.09,150.498 Z" fill="rgb(234,244,0)" fill-opacity="1" />
<path id="Triangle" d="M238.09,150.394 L261.987,174.498 L237.987,174.394 Z" fill="rgb(42,147,0)" fill-opacity="1" />
</g>
<g id="Group 5-2">
<path id="Triangle" d="M296.405,179.214 L291.172,145.678 L310.556,159.83 Z" fill="rgb(236,53,242)" fill-opacity="1" />
<path id="Triangle" d="M291.172,145.678 L296.405,179.214 L277.021,165.062 Z" fill="rgb(42,147,0)" fill-opacity="1" />
</g>
<g id="Group 6-2">
<path id="Triangle" d="M348.813,175.13 L326.263,149.762 L350.222,151.171 Z" fill="rgb(234,244,0)" fill-opacity="1" />
<path id="Triangle" d="M326.263,149.762 L348.813,175.13 L324.855,173.721 Z" fill="rgb(162,238,235)" fill-opacity="1" />
</g>
<g id="Group 7-2">
<path id="Triangle" d="M398.189,160.91 L364.387,163.982 L379.753,145.545 Z" fill="rgb(1,243,2)" fill-opacity="1" />
<path id="Triangle" d="M364.387,163.982 L398.189,160.91 L382.824,179.347 Z" fill="rgb(42,147,0)" fill-opacity="1" />
</g>
<g id="Group 8-2">
<path id="Triangle" d="M437.611,173.844 L412.465,151.048 L436.437,149.873 Z" fill="rgb(229,108,21)" fill-opacity="1" />
<path id="Triangle" d="M412.465,151.048 L437.611,173.844 L413.64,175.019 Z" fill="rgb(42,147,0)" fill-opacity="1" />
</g>
<g id="Group 0-3">
<path id="Triangle" d="M77.649,222.965 L72.4278,189.427 L91.8069,203.585 Z" fill="rgb(229,108,21)" fill-opacity="1" />
<path id="Triangle" d="M72.4278,189.427 L77.649,222.965 L58.2698,208.807 Z" fill="rgb(5,173,190)" fill-opacity="1" />
</g>
<g id="Group 1-3">
<path id="Triangle" d="M135.432,209.51 L102.145,202.882 L122.103,189.552 Z" fill="rgb(1,243,2)" fill-opacity="1" />
<path id="Triangle" d="M102.145,202.882 L135.432,209.51 L115.474,222.84 Z" fill="rgb(124,85,162)" fill-opacity="1" />
</g>
<g id="Group 2-3">
<path id="Triangle" d="M175.941,216.606 L149.135,195.786 L172.948,192.793 Z" fill="rgb(229,108,21)" fill-opacity="1" />
<path id="Triangle" d="M149.135,195.786 L175.941,216.606 L152.129,219.599 Z" fill="rgb(42,147,0)" fill-opacity="1" />
</g>
<g id="Group 4-3">
<path id="Triangle" d="M258.487,191.478 L241.59,220.914 L235.32,197.748 Z" fill="rgb(255,75,19)" fill-opacity="1" />
<path id="Triangle" d="M241.59,220.914 L258.487,191.478 L264.757,214.644 Z" fill="rgb(124,85,162)" fill-opacity="1" />
</g>
<g id="Group 5-3">
<path id="Triangle" d="M295.885,189.355 L291.692,223.036 L276.948,204.099 Z" fill="rgb(255,75,19)" fill-opacity="1" />
<path id="Triangle" d="M291.692,223.036 L295.885,189.355 L310.629,208.293 Z" fill="rgb(162,238,235)" fill-opacity="1" />
</g>
<g id="Group 6-3">
<path id="Triangle" d="M342.833,190.073 L332.243,222.319 L321.415,200.901 Z" fill="rgb(236,53,242)" fill-opacity="1" />
<path id="Triangle" d="M332.243,222.319 L342.833,190.073 L353.662,211.491 Z" fill="rgb(162,238,235)" fill-opacity="1" />
</g>
<g id="Group 7-3">
<path id="Triangle" d="M381.643,223.163 L380.934,189.229 L398.255,205.842 Z" fill="rgb(255,75,19)" fill-opacity="1" />
<path id="Triangle" d="M380.934,189.229 L381.643,223.163 L364.322,206.55 Z" fill="rgb(5,173,190)" fill-opacity="1" />
</g>
<g id="Group 8-3">
<path id="Triangle" d="M430.196,222.364 L419.881,190.028 L441.206,201.038 Z" fill="rgb(1,243,2)" fill-opacity="1" />
<path id="Triangle" d="M419.881,190.028 L430.196,222.364 L408.871,211.354 Z" fill="rgb(124,85,162)" fill-opacity="1" />
</g>
<g id="Group 0-4">
<path id="Triangle" d="M77.2251,233.117 L72.8517,266.775 L58.2093,247.759 Z" fill="rgb(234,244,0)" fill-opacity="1" />
<path id="Triangle" d="M72.8517,266.775 L77.2251,233.117 L91.8675,252.133 Z" fill="rgb(162,238,235)" fill-opacity="1" />
</g>
<g id="Group 1-4">
<path id="Triangle" d="M132.03,260.56 L105.546,239.332 L129.402,236.704 Z" fill="rgb(255,75,19)" fill-opacity="1" />
<path id="Triangle" d="M105.546,239.332 L132.03,260.56 L108.175,263.188 Z" fill="rgb(42,147,0)" fill-opacity="1" />
</g>
<g id="Group 2-4">
<path id="Triangle" d="M179.303,247.311 L145.774,252.581 L159.904,233.181 Z" fill="rgb(255,75,19)" fill-opacity="1" />
<path id="Triangle" d="M145.774,252.581 L179.303,247.311 L165.173,266.711 Z" fill="rgb(162,238,235)" fill-opacity="1" />
</g>
<g id="Group 3-4">
<path id="Triangle" d="M223.026,252.748 L189.551,247.144 L209.091,233.208 Z" fill="rgb(234,244,0)" fill-opacity="1" />
<path id="Triangle" d="M189.551,247.144 L223.026,252.748 L203.486,266.684 Z" fill="rgb(124,85,162)" fill-opacity="1" />
</g>
<g id="Group 4-4">
<path id="Triangle" d="M255.592,265.982 L244.484,233.91 L266.074,244.392 Z" fill="rgb(234,244,0)" fill-opacity="1" />
<path id="Triangle" d="M244.484,233.91 L255.592,265.982 L234.002,255.5 Z" fill="rgb(162,238,235)" fill-opacity="1" />
</g>
<g id="Group 5-4">
<path id="Triangle" d="M299.496,265.928 L288.081,233.964 L309.77,244.238 Z" fill="rgb(229,108,21)" fill-opacity="1" />
<path id="Triangle" d="M288.081,233.964 L299.496,265.928 L277.806,255.653 Z" fill="rgb(42,147,0)" fill-opacity="1" />
</g>
<g id="Group 6-4">
<path id="Triangle" d="M352.811,257.344 L322.265,242.548 L344.937,234.673 Z" fill="rgb(234,244,0)" fill-opacity="1" />
<path id="Triangle" d="M322.265,242.548 L352.811,257.344 L330.14,265.219 Z" fill="rgb(124,85,162)" fill-opacity="1" />
</g>
<g id="Group 7-4">
<path id="Triangle" d="M393.387,261.847 L369.19,238.045 L393.189,237.848 Z" fill="rgb(1,243,2)" fill-opacity="1" />
<path id="Triangle" d="M369.19,238.045 L393.387,261.847 L369.388,262.044 Z" fill="rgb(124,85,162)" fill-opacity="1" />
</g>
<g id="Group 8-4">
<path id="Triangle" d="M441.316,254.748 L408.761,245.144 L429.84,233.669 Z" fill="rgb(255,75,19)" fill-opacity="1" />
<path id="Triangle" d="M408.761,245.144 L441.316,254.748 L420.237,266.223 Z" fill="rgb(167,35,157)" fill-opacity="1" />
</g>
<g id="Group 0-5">
<path id="Triangle" d="M80.5199,309.757 L69.5569,277.635 L91.0993,288.214 Z" fill="rgb(236,53,242)" fill-opacity="1" />
<path id="Triangle" d="M69.5569,277.635 L80.5199,309.757 L58.9775,299.177 Z" fill="rgb(124,85,162)" fill-opacity="1" />
</g>
<g id="Group 1-5">
<path id="Triangle" d="M126.754,278.711 L110.823,308.681 L103.803,285.731 Z" fill="rgb(1,243,2)" fill-opacity="1" />
<path id="Triangle" d="M110.823,308.681 L126.754,278.711 L133.773,301.661 Z" fill="rgb(124,85,162)" fill-opacity="1" />
</g>
<g id="Group 2-5">
<path id="Triangle" d="M174.796,281.959 L150.281,305.433 L150.801,281.439 Z" fill="rgb(234,244,0)" fill-opacity="1" />
<path id="Triangle" d="M150.281,305.433 L174.796,281.959 L174.275,305.953 Z" fill="rgb(42,147,0)" fill-opacity="1" />
</g>
<g id="Group 3-5">
<path id="Triangle" d="M217.431,306.496 L195.146,280.896 L219.089,282.553 Z" fill="rgb(1,243,2)" fill-opacity="1" />
<path id="Triangle" d="M195.146,280.896 L217.431,306.496 L193.488,304.838 Z" fill="rgb(5,173,190)" fill-opacity="1" />
</g>
<g id="Group 4-5">
<path id="Triangle" d="M267,294.235 L233.076,293.157 L250.577,276.734 Z" fill="rgb(255,75,19)" fill-opacity="1" />
<path id="Triangle" d="M233.076,293.157 L267,294.235 L249.5,310.658 Z" fill="rgb(42,147,0)" fill-opacity="1" />
</g>
<g id="Group 5-5">
<path id="Triangle" d="M299.385,309.717 L288.192,277.675 L309.809,288.099 Z" fill="rgb(234,244,0)" fill-opacity="1" />
<path id="Triangle" d="M288.192,277.675 L299.385,309.717 L277.767,299.293 Z" fill="rgb(5,173,190)" fill-opacity="1" />
</g>
<g id="Group 6-5">
<path id="Triangle" d="M338.136,276.736 L336.941,310.656 L320.578,293.099 Z" fill="rgb(1,243,2)" fill-opacity="1" />
<path id="Triangle" d="M336.941,310.656 L338.136,276.736 L354.498,294.293 Z" fill="rgb(162,238,235)" fill-opacity="1" />
</g>
<g id="Group 7-5">
<path id="Triangle" d="M389.461,278.823 L373.116,308.569 L366.415,285.523 Z" fill="rgb(236,53,242)" fill-opacity="1" />
<path id="Triangle" d="M373.116,308.569 L389.461,278.823 L396.161,301.869 Z" fill="rgb(42,147,0)" fill-opacity="1" />
</g>
<g id="Group 8-5">
<path id="Triangle" d="M438.411,304.145 L411.666,283.247 L435.487,280.323 Z" fill="rgb(236,53,242)" fill-opacity="1" />
<path id="Triangle" d="M411.666,283.247 L438.411,304.145 L414.59,307.069 Z" fill="rgb(124,85,162)" fill-opacity="1" />
</g>
<g id="Group 0-6">
<path id="Triangle" d="M80.5763,321.404 L69.5005,353.488 L58.9968,331.908 Z" fill="rgb(1,243,2)" fill-opacity="1" />
<path id="Triangle" d="M69.5005,353.488 L80.5763,321.404 L91.0799,342.984 Z" fill="rgb(42,147,0)" fill-opacity="1" />
</g>
<g id="Group 1-6">
<path id="Triangle" d="M133.923,329.769 L103.654,345.123 L111.111,322.311 Z" fill="rgb(234,244,0)" fill-opacity="1" />
<path id="Triangle" d="M103.654,345.123 L133.923,329.769 L126.466,352.581 Z" fill="rgb(42,147,0)" fill-opacity="1" />
</g>
<g id="Group 2-6">
<path id="Triangle" d="M178.821,342.229 L146.256,332.663 L167.322,321.163 Z" fill="rgb(1,243,2)" fill-opacity="1" />
<path id="Triangle" d="M146.256,332.663 L178.821,342.229 L157.755,353.728 Z" fill="rgb(124,85,162)" fill-opacity="1" />
</g>
<g id="Group 3-6">
<path id="Triangle" d="M216.557,350.957 L196.02,323.935 L219.8,327.177 Z" fill="rgb(236,53,242)" fill-opacity="1" />
<path id="Triangle" d="M196.02,323.935 L216.557,350.957 L192.777,347.715 Z" fill="rgb(42,147,0)" fill-opacity="1" />
</g>
<g id="Group 4-6">
<path id="Triangle" d="M266.12,332.026 L233.957,342.866 L244.619,321.364 Z" fill="rgb(1,243,2)" fill-opacity="1" />
<path id="Triangle" d="M233.957,342.866 L266.12,332.026 L255.458,353.528 Z" fill="rgb(124,85,162)" fill-opacity="1" />
</g>
<g id="Group 5-6">
<path id="Triangle" d="M310.671,335.718 L276.906,339.174 L292.06,320.564 Z" fill="rgb(255,75,19)" fill-opacity="1" />
<path id="Triangle" d="M276.906,339.174 L310.671,335.718 L295.517,354.328 Z" fill="rgb(5,173,190)" fill-opacity="1" />
</g>
<g id="Group 6-6">
<path id="Triangle" d="M354.485,336.554 L320.591,338.338 L336.646,320.499 Z" fill="rgb(255,75,19)" fill-opacity="1" />
<path id="Triangle" d="M320.591,338.338 L354.485,336.554 L338.43,354.393 Z" fill="rgb(5,173,190)" fill-opacity="1" />
</g>
<g id="Group 7-6">
<path id="Triangle" d="M381.367,320.476 L381.21,354.416 L364.318,337.367 Z" fill="rgb(1,243,2)" fill-opacity="1" />
<path id="Triangle" d="M381.21,354.416 L381.367,320.476 L398.259,337.525 Z" fill="rgb(167,35,157)" fill-opacity="1" />
</g>
<g id="Group 8-6">
<path id="Triangle" d="M440.528,330.513 L409.548,344.378 L418.106,321.956 Z" fill="rgb(236,53,242)" fill-opacity="1" />
<path id="Triangle" d="M409.548,344.378 L440.528,330.513 L431.971,352.936 Z" fill="rgb(162,238,235)" fill-opacity="1" />
</g>
<g id="Group 0-7">
<path id="Triangle" d="M83.0548,396.154 L67.022,366.238 L89.9962,373.18 Z" fill="rgb(255,75,19)" fill-opacity="1" />
<path id="Triangle" d="M67.022,366.238 L83.0548,396.154 L60.0805,389.212 Z" fill="rgb(162,238,235)" fill-opacity="1" />
</g>
<g id="Group 1-7">
<path id="Triangle" d="M134.429,387.782 L103.148,374.61 L125.375,365.556 Z" fill="rgb(255,75,19)" fill-opacity="1" />
<path id="Triangle" d="M103.148,374.61 L134.429,387.782 L112.202,396.836 Z" fill="rgb(162,238,235)" fill-opacity="1" />
</g>
<g id="Group 2-7">
<path id="Triangle" d="M163.785,398.121 L161.292,364.271 L179.463,379.949 Z" fill="rgb(236,53,242)" fill-opacity="1" />
<path id="Triangle" d="M161.292,364.271 L163.785,398.121 L145.614,382.443 Z" fill="rgb(42,147,0)" fill-opacity="1" />
</g>
<g id="Group 3-7">
<path id="Triangle" d="M222.849,384.904 L189.728,377.488 L209.996,364.635 Z" fill="rgb(234,244,0)" fill-opacity="1" />
<path id="Triangle" d="M189.728,377.488 L222.849,384.904 L202.581,397.757 Z" fill="rgb(162,238,235)" fill-opacity="1" />
</g>
<g id="Group 4-7">
<path id="Triangle" d="M265.589,374.401 L234.488,387.991 L243.243,365.645 Z" fill="rgb(1,243,2)" fill-opacity="1" />
<path id="Triangle" d="M234.488,387.991 L265.589,374.401 L256.834,396.747 Z" fill="rgb(5,173,190)" fill-opacity="1" />
</g>
<g id="Group 5-7">
<path id="Triangle" d="M310.653,379.305 L276.923,383.087 L291.898,364.331 Z" fill="rgb(255,75,19)" fill-opacity="1" />
<path id="Triangle" d="M276.923,383.087 L310.653,379.305 L295.679,398.061 Z" fill="rgb(124,85,162)" fill-opacity="1" />
</g>
<g id="Group 6-7">
<path id="Triangle" d="M342.355,364.923 L332.722,397.469 L321.266,376.379 Z" fill="rgb(229,108,21)" fill-opacity="1" />
<path id="Triangle" d="M332.722,397.469 L342.355,364.923 L353.811,386.013 Z" fill="rgb(5,173,190)" fill-opacity="1" />
</g>
<g id="Group 7-7">
<path id="Triangle" d="M394.255,370.248 L368.322,392.144 L370.34,368.229 Z" fill="rgb(1,243,2)" fill-opacity="1" />
<path id="Triangle" d="M368.322,392.144 L394.255,370.248 L392.237,394.163 Z" fill="rgb(42,147,0)" fill-opacity="1" />
</g>
<g id="Group 8-7">
<path id="Triangle" d="M436.951,393.282 L413.126,369.109 L437.125,369.283 Z" fill="rgb(234,244,0)" fill-opacity="1" />
<path id="Triangle" d="M413.126,369.109 L436.951,393.282 L412.952,393.109 Z" fill="rgb(124,85,162)" fill-opacity="1" />
</g>
<g id="Group 0-8">
<path id="Triangle" d="M90.9015,430.976 L59.1753,418.916 L81.0684,409.083 Z" fill="rgb(229,108,21)" fill-opacity="1" />
<path id="Triangle" d="M59.1753,418.916 L90.9015,430.976 L69.0084,440.809 Z" fill="rgb(124,85,162)" fill-opacity="1" />
</g>
<g id="Group 1-8">
<path id="Triangle" d="M122.418,408.368 L115.159,441.524 L102.21,421.316 Z" fill="rgb(234,244,0)" fill-opacity="1" />
<path id="Triangle" d="M115.159,441.524 L122.418,408.368 L135.366,428.575 Z" fill="rgb(124,85,162)" fill-opacity="1" />
</g>
<g id="Group 2-8">
<path id="Triangle" d="M168.246,408.964 L156.83,440.928 L146.557,419.238 Z" fill="rgb(229,108,21)" fill-opacity="1" />
<path id="Triangle" d="M156.83,440.928 L168.246,408.964 L178.52,430.654 Z" fill="rgb(167,35,157)" fill-opacity="1" />
</g>
<g id="Group 3-8">
<path id="Triangle" d="M217.655,437.548 L194.922,412.344 L218.89,413.58 Z" fill="rgb(229,108,21)" fill-opacity="1" />
<path id="Triangle" d="M194.922,412.344 L217.655,437.548 L193.687,436.312 Z" fill="rgb(167,35,157)" fill-opacity="1" />
</g>
<g id="Group 4-8">
<path id="Triangle" d="M262.275,413.187 L237.802,436.705 L238.279,412.71 Z" fill="rgb(236,53,242)" fill-opacity="1" />
<path id="Triangle" d="M237.802,436.705 L262.275,413.187 L261.797,437.182 Z" fill="rgb(124,85,162)" fill-opacity="1" />
</g>
<g id="Group 5-8">
<path id="Triangle" d="M298.851,408.748 L288.726,441.144 L277.591,419.883 Z" fill="rgb(1,243,2)" fill-opacity="1" />
<path id="Triangle" d="M288.726,441.144 L298.851,408.748 L309.986,430.008 Z" fill="rgb(124,85,162)" fill-opacity="1" />
</g>
<g id="Group 6-8">
<path id="Triangle" d="M339.309,408.068 L335.767,441.824 L320.66,423.175 Z" fill="rgb(236,53,242)" fill-opacity="1" />
<path id="Triangle" d="M335.767,441.824 L339.309,408.068 L354.416,426.717 Z" fill="rgb(162,238,235)" fill-opacity="1" />
</g>
<g id="Group 7-8">
<path id="Triangle" d="M388.475,440.32 L374.102,409.572 L396.662,417.76 Z" fill="rgb(234,244,0)" fill-opacity="1" />
<path id="Triangle" d="M374.102,409.572 L388.475,440.32 L365.915,432.132 Z" fill="rgb(42,147,0)" fill-opacity="1" />
</g>
<g id="Group 8-8">
<path id="Triangle" d="M430.662,408.934 L419.415,440.958 L409.027,419.322 Z" fill="rgb(236,53,242)" fill-opacity="1" />
<path id="Triangle" d="M419.415,440.958 L430.662,408.934 L441.05,430.57 Z" fill="rgb(167,35,157)" fill-opacity="1" />
</g>
</g>
<g id="Transform group">
<g id="Group">
<path id="Circle" d="M218.288,206.196 C218.288,212.823 212.916,218.196 206.288,218.196 C199.661,218.196 194.288,212.823 194.288,206.196 C194.288,199.569 199.661,194.196 206.288,194.196 C212.916,194.196 218.288,199.569 218.288,206.196 Z" fill="rgb(255,75,19)" fill-opacity="1" />
<path id="Circle" d="M212.288,206.196 C212.288,209.51 209.602,212.196 206.288,212.196 C202.975,212.196 200.288,209.51 200.288,206.196 C200.288,202.882 202.975,200.196 206.288,200.196 C209.602,200.196 212.288,202.882 212.288,206.196 Z" fill="rgb(124,85,162)" fill-opacity="1" />
</g>
<g id="Group 1">
<path id="Circle" d="M218.788,206.196 C218.788,213.1 213.192,218.696 206.288,218.696 C199.385,218.696 193.788,213.1 193.788,206.196 C193.788,199.292 199.385,193.696 206.288,193.696 C213.192,193.696 218.788,199.292 218.788,206.196 Z" fill="rgb(255,75,19)" fill-opacity="1" />
<path id="Circle" d="M212.538,206.196 C212.538,209.648 209.74,212.446 206.288,212.446 C202.837,212.446 200.038,209.648 200.038,206.196 C200.038,202.744 202.837,199.946 206.288,199.946 C209.74,199.946 212.538,202.744 212.538,206.196 Z" fill="rgb(124,85,162)" fill-opacity="1" />
</g>
<g id="Group 2">
<path id="Circle" d="M219.288,206.196 C219.288,213.376 213.468,219.196 206.288,219.196 C199.109,219.196 193.288,213.376 193.288,206.196 C193.288,199.016 199.109,193.196 206.288,193.196 C213.468,193.196 219.288,199.016 219.288,206.196 Z" fill="rgb(255,75,19)" fill-opacity="1" />
<path id="Circle" d="M212.788,206.196 C212.788,209.786 209.878,212.696 206.288,212.696 C202.699,212.696 199.788,209.786 199.788,206.196 C199.788,202.606 202.699,199.696 206.288,199.696 C209.878,199.696 212.788,202.606 212.788,206.196 Z" fill="rgb(124,85,162)" fill-opacity="1" />
</g>
<g id="Group 3">
<path id="Circle" d="M219.788,206.196 C219.788,213.652 213.744,219.696 206.288,219.696 C198.833,219.696 192.788,213.652 192.788,206.196 C192.788,198.74 198.833,192.696 206.288,192.696 C213.744,192.696 219.788,198.74 219.788,206.196 Z" fill="rgb(255,75,19)" fill-opacity="1" />
<path id="Circle" d="M213.038,206.196 C213.038,209.924 210.016,212.946 206.288,212.946 C202.56,212.946 199.538,209.924 199.538,206.196 C199.538,202.468 202.56,199.446 206.288,199.446 C210.016,199.446 213.038,202.468 213.038,206.196 Z" fill="rgb(124,85,162)" fill-opacity="1" />
</g>
<g id="Group 4">
<path id="Circle" d="M220.288,206.196 C220.288,213.928 214.02,220.196 206.288,220.196 C198.556,220.196 192.288,213.928 192.288,206.196 C192.288,198.464 198.556,192.196 206.288,192.196 C214.02,192.196 220.288,198.464 220.288,206.196 Z" fill="rgb(255,75,19)" fill-opacity="1" />
<path id="Circle" d="M213.288,206.196 C213.288,210.062 210.154,213.196 206.288,213.196 C202.422,213.196 199.288,210.062 199.288,206.196 C199.288,202.33 202.422,199.196 206.288,199.196 C210.154,199.196 213.288,202.33 213.288,206.196 Z" fill="rgb(124,85,162)" fill-opacity="1" />
</g>
<g id="Group 5">
<path id="Circle" d="M220.788,206.196 C220.788,214.204 214.297,220.696 206.288,220.696 C198.28,220.696 191.788,214.204 191.788,206.196 C191.788,198.188 198.28,191.696 206.288,191.696 C214.297,191.696 220.788,198.188 220.788,206.196 Z" fill="rgb(255,75,19)" fill-opacity="1" />
<path id="Circle" d="M213.538,206.196 C213.538,210.2 210.292,213.446 206.288,213.446 C202.284,213.446 199.038,210.2 199.038,206.196 C199.038,202.192 202.284,198.946 206.288,198.946 C210.292,198.946 213.538,202.192 213.538,206.196 Z" fill="rgb(124,85,162)" fill-opacity="1" />
</g>
<g id="Group 6">
<path id="Circle" d="M221.288,206.196 C221.288,214.48 214.573,221.196 206.288,221.196 C198.004,221.196 191.288,214.48 191.288,206.196 C191.288,197.912 198.004,191.196 206.288,191.196 C214.573,191.196 221.288,197.912 221.288,206.196 Z" fill="rgb(255,75,19)" fill-opacity="1" />
<path id="Circle" d="M213.788,206.196 C213.788,210.338 210.431,213.696 206.288,213.696 C202.146,213.696 198.788,210.338 198.788,206.196 C198.788,202.054 202.146,198.696 206.288,198.696 C210.431,198.696 213.788,202.054 213.788,206.196 Z" fill="rgb(124,85,162)" fill-opacity="1" />
</g>
<g id="Group 7">
<path id="Circle" d="M221.788,206.196 C221.788,214.756 214.849,221.696 206.288,221.696 C197.728,221.696 190.788,214.756 190.788,206.196 C190.788,197.636 197.728,190.696 206.288,190.696 C214.849,190.696 221.788,197.636 221.788,206.196 Z" fill="rgb(255,75,19)" fill-opacity="1" />
<path id="Circle" d="M214.038,206.196 C214.038,210.476 210.569,213.946 206.288,213.946 C202.008,213.946 198.538,210.476 198.538,206.196 C198.538,201.916 202.008,198.446 206.288,198.446 C210.569,198.446 214.038,201.916 214.038,206.196 Z" fill="rgb(124,85,162)" fill-opacity="1" />
</g>
</g>
</g>
</g>
</g>
</svg>
